<?xml version="1.0" encoding="utf-8"?>
<!-- Generator: Adobe Illustrator 27.7.0, SVG Export Plug-In . SVG Version: 6.00 Build 0)  -->
<svg version="1.1" id="レイヤー_1" xmlns="http://www.w3.org/2000/svg" xmlns:xlink="http://www.w3.org/1999/xlink" x="0px"
	 y="0px" viewBox="0 0 75.6 57.2" style="enable-background:new 0 0 75.6 57.2;" xml:space="preserve">
<style type="text/css">
	.st0{clip-path:url(#SVGID_00000021098866671605288480000006846353261141510317_);}
	.st1{fill-rule:evenodd;clip-rule:evenodd;fill:#F3AAAA;}
	.st2{fill:#EC7C7C;}
</style>
<g>
	<g>
		<g>
			<defs>
				<rect id="SVGID_1_" x="-0.3" y="0.5" width="76.4" height="56.3"/>
			</defs>
			<clipPath id="SVGID_00000173133033937185221420000000146999680925765009_">
				<use xlink:href="#SVGID_1_"  style="overflow:visible;"/>
			</clipPath>
			<g style="clip-path:url(#SVGID_00000173133033937185221420000000146999680925765009_);">
				<path class="st1" d="M54.4,54c-2.6-0.6-5.1-2-7.2-4c-2.9-2.9-4.4-6.8-4.4-10.6s1.5-7.7,4.4-10.6c0-0.1,0.1-0.1,0.2-0.1
					L36.9,16.9l-8.3,7.8l-6.5-6.6l1.7-1.7l4.6,4.6l8.4-8L26.3,0.5H15.7c-1.4,0-2.2,1.2-2.7,2.2s-2.4,4.4-2.4,4.4L0.5,7.6
					c0,0-1,9.6,4.1,9.6c0,0,0.5,3.2,2.9,3.2H14c0,0,5.8,6.7,6.6,7.8c0.1,0.1,0.1,0.2,0.2,0.3c1.2,1.5,1.3,1.8,0.8,3.3
					c-0.8,2.1-2.7,6.5-4.3,10.3c-1.2,2.8-2.2,5.2-2.6,6.2c-1.8,4.9,3.9,6.8,6.1,3.1c3.1-5.3,6.6-11,6.6-11l1.9,2.7
					c0,0-1.5,2.3-1.1,5.7c-5.3,0-6.7,5.7-2.3,5.7h25.3C52.5,54.4,53.5,54.2,54.4,54z"/>
				<path class="st2" d="M48.9,30.5c2.4-2.4,5.6-3.7,8.8-3.6c3.2,0,6.4,1.2,8.8,3.6s3.6,5.6,3.6,8.8c0,2.2-0.6,4.4-1.8,6.4l6,6
					c1.2,1.2,1.2,3.1,0,4.3s-3.1,1.2-4.2,0l-6-6c-2,1.2-4.2,1.8-6.4,1.8c-3.2,0-6.4-1.2-8.8-3.6c-2.4-2.4-3.6-5.6-3.6-8.8
					C45.3,36.1,46.5,32.9,48.9,30.5z M52.3,44.7c1.5,1.5,3.4,2.2,5.4,2.2s3.9-0.7,5.4-2.2c1.5-1.5,2.2-3.4,2.2-5.4s-0.7-3.9-2.2-5.4
					c-1.5-1.5-3.4-2.2-5.4-2.2s-3.9,0.7-5.4,2.2s-2.2,3.4-2.2,5.4C50.1,41.2,50.8,43.2,52.3,44.7z"/>
			</g>
		</g>
	</g>
</g>
</svg>
