<?xml version="1.0" encoding="utf-8"?>
<!-- Generator: Adobe Illustrator 27.7.0, SVG Export Plug-In . SVG Version: 6.00 Build 0)  -->
<svg version="1.1" id="レイヤー_1" xmlns="http://www.w3.org/2000/svg" xmlns:xlink="http://www.w3.org/1999/xlink" x="0px"
	 y="0px" viewBox="0 0 59 62.3" style="enable-background:new 0 0 59 62.3;" xml:space="preserve">
<style type="text/css">
	.st0{fill-rule:evenodd;clip-rule:evenodd;fill:#F3AAAA;}
	.st1{fill:#EC7C7C;}
</style>
<g>
	<path class="st0" d="M35.4,58.2c-3.4,0.3-7.3,0.5-11.7,0.5c-13.6,0-23.3-1.9-23.1-3.6c1-7.8,6-10.2,10.7-12.6
		c0.9-0.5,1.8-0.9,2.7-1.4c0.3-0.2,0.6-0.3,0.8-0.5c1.6-0.8,2.3-1.2,2.3-3.7v-4.6c-0.2-0.2-0.3-0.3-0.5-0.5c-1-1-1.4-1.5-2.4-6.3
		c-1.5,0-1.9-1.4-2.4-3.2c-0.2-0.7-0.4-1.5-0.7-2.2c-0.8-2-0.2-2.8,0.5-3.2c0.2-0.9,0.1-2,0.1-3.2c-0.1-2.8-0.2-6.1,2-8.8l-0.2-3.4
		c0,0,2,0.4,4.2,0s6.8-1.3,9.9,1.3c8.5,1.6,8.5,6.8,7.9,14.3c0.7,0.3,1.4,1.2,0.6,3.2c-0.3,0.7-0.5,1.5-0.7,2.2
		c-0.5,1.7-0.8,3.2-2.4,3.2c-0.2,1-0.4,1.9-0.5,2.6c-1.5,0.8-2.9,1.8-4.1,3c-3.1,3.1-4.7,7.3-4.7,11.4s1.6,8.3,4.7,11.4
		C30.4,56.1,32.8,57.5,35.4,58.2z"/>
	<path class="st1" d="M30.2,33.1c2.6-2.6,6-3.9,9.4-3.9c3.4,0,6.8,1.3,9.4,3.9s3.9,6,3.9,9.4c0,2.4-0.6,4.8-1.9,6.9l6.4,6.5
		c1.3,1.3,1.3,3.3,0,4.6c-1.3,1.3-3.3,1.3-4.5,0L46.5,54c-2.1,1.3-4.5,1.9-6.8,1.9c-3.4,0-6.8-1.3-9.4-3.9s-3.9-6-3.9-9.5
		C26.3,39.1,27.6,35.7,30.2,33.1z M33.8,48.4c1.6,1.6,3.7,2.4,5.8,2.4s4.2-0.8,5.8-2.4c1.6-1.6,2.4-3.7,2.4-5.8s-0.8-4.2-2.4-5.8
		s-3.7-2.4-5.8-2.4s-4.2,0.8-5.8,2.4c-1.6,1.6-2.4,3.7-2.4,5.8C31.4,44.7,32.2,46.7,33.8,48.4z"/>
</g>
</svg>
