<svg width="33" height="34" viewBox="0 0 33 34" fill="none" xmlns="http://www.w3.org/2000/svg">
<g clip-path="url(#clip0_57_4780)">
<mask id="mask0_57_4780" style="mask-type:luminance" maskUnits="userSpaceOnUse" x="0" y="0" width="33" height="33">
<path d="M32.61 0.924988H0.609985V32.925H32.61V0.924988Z" fill="white"/>
</mask>
<g mask="url(#mask0_57_4780)">
<path d="M13.4299 10.485C15.3999 11.205 17.7699 9.68496 18.7199 7.09496C19.6699 4.50496 18.8399 1.81496 16.8699 1.09496C14.8999 0.374961 12.5299 1.89496 11.5799 4.48496C10.6299 7.07496 11.4599 9.76496 13.4299 10.485Z" fill="#EE7C7C"/>
<path d="M5.94003 14.625C8.00003 14.445 9.48003 12.105 9.25003 9.39496C9.02003 6.68496 7.15003 4.62496 5.09003 4.80496C3.03003 4.98496 1.55003 7.32496 1.78003 10.035C2.01003 12.745 3.88003 14.805 5.94003 14.625Z" fill="#EE7C7C"/>
<path d="M22 14.5349C23.81 15.5949 26.41 14.5349 27.81 12.1549C29.21 9.77495 28.88 6.98495 27.07 5.91495C25.26 4.85495 22.66 5.91495 21.26 8.30495C19.86 10.6849 20.2 13.4749 22.01 14.5349H22Z" fill="#EE7C7C"/>
<path d="M31.69 17.355C30.52 15.655 27.75 15.515 25.51 17.065C23.27 18.605 22.4 21.245 23.57 22.945C24.74 24.645 27.51 24.785 29.75 23.235C31.99 21.695 32.86 19.055 31.69 17.355Z" fill="#EE7C7C"/>
<path d="M19.64 17.675C19.42 16.125 18.47 14.715 16.95 13.995C15.43 13.275 13.74 13.445 12.4 14.255C10.92 15.155 9.97997 16.325 8.69997 16.835C7.42997 17.345 3.85997 15.825 1.63997 19.855C0.0699694 22.705 1.50997 26.305 4.44997 27.685C6.67997 28.735 8.44997 28.625 9.74997 29.235C11.05 29.845 12.08 31.285 14.31 32.345C17.25 33.735 20.94 32.555 22.14 29.535C23.84 25.255 20.4 23.475 19.98 22.165C19.57 20.855 19.87 19.385 19.62 17.675H19.64Z" fill="#EE7C7C"/>
</g>
</g>
<defs>
<clipPath id="clip0_57_4780">
<rect width="32.22" height="33" fill="white" transform="translate(0.390015 0.5)"/>
</clipPath>
</defs>
</svg>
