<svg width="45" height="48" viewBox="0 0 45 48" fill="none" xmlns="http://www.w3.org/2000/svg">
<g clip-path="url(#clip0_57_3105)">
<mask id="mask0_57_3105" style="mask-type:luminance" maskUnits="userSpaceOnUse" x="0" y="0" width="40" height="48">
<path d="M39.41 0.0749512H0.849976V47.9249H39.41V0.0749512Z" fill="white"/>
</mask>
<g mask="url(#mask0_57_3105)">
<path d="M13.6699 25.4849C15.6399 26.2049 18.0099 24.6849 18.9599 22.0949C19.9099 19.5049 19.0799 16.8149 17.1099 16.0949C15.1399 15.3749 12.7699 16.8949 11.8199 19.4849C10.8699 22.0749 11.6999 24.7649 13.6699 25.4849Z" fill="#EE7C7C"/>
<path d="M6.18002 29.6249C8.24002 29.4449 9.72002 27.1049 9.49002 24.3949C9.26002 21.6849 7.39002 19.6249 5.33002 19.8049C3.27002 19.9849 1.79002 22.3249 2.02002 25.0349C2.25002 27.7449 4.12002 29.8049 6.18002 29.6249Z" fill="#EE7C7C"/>
<path d="M22.24 29.5349C24.05 30.5949 26.65 29.5349 28.05 27.1549C29.45 24.7749 29.12 21.9849 27.31 20.9149C25.5 19.8549 22.9 20.9149 21.5 23.3049C20.1 25.6849 20.44 28.4749 22.25 29.5349H22.24Z" fill="#EE7C7C"/>
<path d="M31.93 32.3549C30.76 30.6549 27.99 30.5149 25.75 32.0649C23.51 33.6049 22.64 36.2449 23.81 37.9449C24.98 39.6449 27.75 39.7849 29.99 38.2349C32.23 36.6949 33.1 34.0549 31.93 32.3549Z" fill="#EE7C7C"/>
<path d="M19.88 32.6749C19.66 31.1249 18.71 29.7149 17.19 28.9949C15.67 28.2749 13.98 28.4449 12.64 29.2549C11.16 30.1549 10.22 31.3249 8.93996 31.8349C7.66996 32.3449 4.09996 30.8249 1.87996 34.8549C0.30996 37.7049 1.74996 41.3049 4.68996 42.6849C6.91996 43.7349 8.68996 43.6249 9.98996 44.2349C11.29 44.8449 12.32 46.2849 14.55 47.3449C17.49 48.7349 21.18 47.5549 22.38 44.5349C24.08 40.2549 20.64 38.4749 20.22 37.1649C19.81 35.8549 20.11 34.3849 19.86 32.6749H19.88Z" fill="#EE7C7C"/>
</g>
<path d="M8.95001 11.865C7.17001 12.675 5.79001 12.075 5.55001 11.545C5.39001 11.185 5.58001 10.775 5.90001 10.635C6.08001 10.555 6.29001 10.565 6.51001 10.685C6.98001 10.955 7.66001 11.045 8.44001 10.685C9.64001 10.135 9.53001 9.19495 9.37001 8.85495C9.17001 8.41495 8.69001 8.06495 7.98001 8.01495C7.38001 7.96495 6.64001 7.90495 5.94001 7.90495C4.78001 7.90495 3.99001 7.33495 3.65001 6.57495C3.17001 5.51495 3.55001 4.11495 5.06001 3.42495C6.57001 2.73495 7.76001 3.06495 7.99001 3.57495C8.14001 3.90495 8.01001 4.33495 7.67001 4.48495C7.50001 4.56495 7.29001 4.56495 7.04001 4.45495C6.73001 4.32495 6.23001 4.21495 5.56001 4.52495C4.86001 4.84495 4.63001 5.47495 4.86001 5.96495C5.01001 6.30495 5.39001 6.57495 5.98001 6.61495C6.54001 6.65495 7.45001 6.65495 8.08001 6.69495C9.45001 6.79495 10.28 7.41495 10.65 8.22495C11.18 9.39495 10.74 11.045 8.97001 11.855L8.95001 11.865Z" fill="#EE7C7C"/>
<path d="M13.46 5.44497C13.28 5.47497 13.29 5.53497 13.31 5.60497C13.39 6.04497 13.54 7.05497 13.68 7.83497C13.85 8.75497 13.95 9.12497 14.61 9.00497C14.69 8.98497 14.78 8.96497 14.88 8.93497C14.92 8.93497 14.93 8.91497 14.97 8.90497C15.29 8.84497 15.52 9.07497 15.57 9.33497C15.65 9.75497 15.29 10.035 14.68 10.145C12.93 10.465 12.65 8.91497 12.56 8.43497C12.44 7.74497 12.24 6.56497 12.15 6.04497C12.14 5.97497 12.12 5.91497 12.12 5.86497C12.09 5.71497 12.02 5.71497 11.9 5.73497L11.54 5.80497C11.2 5.86497 10.96 5.61497 10.91 5.33497C10.86 5.06497 10.99 4.75497 11.34 4.69497L11.68 4.63497C11.87 4.60497 11.87 4.56497 11.84 4.39497C11.84 4.39497 11.81 4.15497 11.76 3.88497C11.73 3.74497 11.71 3.60497 11.67 3.47497C11.67 3.46497 11.67 3.45497 11.67 3.43497C11.61 3.08497 11.86 2.85497 12.16 2.79497C12.78 2.68497 12.89 3.24497 12.92 3.40497C12.98 3.72497 13.04 4.17497 13.04 4.17497C13.07 4.36497 13.12 4.36497 13.24 4.34497L14.03 4.20497C14.38 4.14497 14.6 4.38497 14.65 4.66497C14.7 4.93497 14.58 5.24497 14.23 5.31497L13.45 5.45497L13.46 5.44497Z" fill="#EE7C7C"/>
<path d="M18.84 10.035C17.2 9.93498 16.05 8.63498 16.16 6.84498C16.27 5.01498 17.64 3.83498 19.18 3.92498C20.83 4.02498 21.69 5.28498 21.64 6.19498C21.6 6.75498 21.21 7.19498 20.44 7.16498C20.07 7.16498 19.82 7.13498 17.49 7.00498C17.42 7.00498 17.39 7.09498 17.38 7.22498C17.33 8.22498 18.06 8.86498 18.91 8.91498C19.67 8.95498 20.14 8.62498 20.51 8.27498C20.64 8.15498 20.78 8.09498 20.93 8.10498C21.25 8.12498 21.55 8.43498 21.53 8.76498C21.53 8.90498 21.46 9.05498 21.32 9.17498C20.71 9.73498 20.04 10.095 18.83 10.025L18.84 10.035ZM20.41 5.92498C20.42 5.75498 20.21 5.03498 19.13 4.97498C18.16 4.91498 17.58 5.72498 17.57 5.92498C17.57 6.03498 17.68 6.03498 18.8 6.10498C19.29 6.13498 19.83 6.16498 20.15 6.17498C20.29 6.17498 20.4 6.06498 20.4 5.92498H20.41Z" fill="#EE7C7C"/>
<path d="M25.31 5.72496C25.31 5.72496 25.33 5.72496 25.35 5.72496C25.9 5.52496 26.51 5.50496 27.13 5.73496C28.68 6.32496 29.42 7.89496 28.77 9.58496C28.15 11.225 26.53 11.955 24.98 11.365C24.36 11.125 23.93 10.695 23.65 10.175C23.63 10.155 23.62 10.125 23.61 10.125C23.59 10.125 23.57 10.125 23.55 10.175C23.08 11.405 22.7 12.485 22.53 12.945C22.41 13.295 22.08 13.445 21.74 13.305C21.44 13.185 21.22 12.875 21.37 12.495C21.37 12.475 21.38 12.465 21.39 12.435C21.58 12.045 21.9 11.205 22.27 10.215C22.91 8.52496 23.7 6.40496 24.1 5.33496C24.26 4.91496 24.63 4.81496 24.92 4.92496C25.18 5.02496 25.37 5.30496 25.29 5.65496C25.29 5.68496 25.29 5.69496 25.31 5.70496V5.72496ZM27.65 9.16496C28.07 8.06496 27.61 7.11496 26.71 6.77496C25.81 6.43496 24.84 6.83496 24.42 7.93496C24 9.04496 24.45 10.005 25.35 10.345C26.25 10.685 27.23 10.275 27.65 9.16496Z" fill="#EE7C7C"/>
<path d="M31.0601 10.9949C31.3701 10.5749 31.6901 10.1849 32.0301 9.81492C32.3401 9.47492 32.67 9.14492 33.02 8.80492C34.54 7.36492 36.1601 7.27492 37.3701 8.36492C38.5601 9.44492 38.6601 11.0149 37.4601 12.6349C37.1401 13.0549 36.8201 13.4749 36.4701 13.8549C35.5601 14.8649 33.3001 17.2149 31.1401 15.2649C29.9501 14.1949 29.8501 12.6149 31.0501 10.9849L31.0601 10.9949ZM34.3401 14.0149C34.7501 13.6749 35.1701 13.2549 35.5501 12.8349C36.1701 12.1449 37.76 10.3849 36.5401 9.28492C35.9201 8.72492 34.9301 8.86492 33.9801 9.73492C33.6601 10.0449 33.3401 10.3549 33.0501 10.6749C32.7101 11.0549 32.3901 11.4349 32.1101 11.8449C31.4001 12.8549 31.4001 13.8149 31.9801 14.3349C32.5301 14.8349 33.4401 14.7549 34.3301 14.0149H34.3401Z" fill="#EE7C7C"/>
<path d="M34.82 18.405C34.56 18.075 34.65 17.685 34.96 17.435C35.17 17.275 35.46 17.175 35.82 17.205C37.07 17.275 39.05 17.485 40.72 17.505C41.47 17.525 42 17.345 42.34 17.075C42.93 16.605 42.95 15.865 42.53 15.335C42.21 14.925 41.64 14.655 40.89 14.745C40.59 14.775 40.36 14.655 40.22 14.475C40 14.195 39.99 13.755 40.28 13.525C40.61 13.265 42.3 13.095 43.47 14.575C44.33 15.665 44.47 17.235 43.35 18.125C42.81 18.545 42.01 18.815 40.87 18.815C39.4 18.815 37.87 18.525 36.4 18.405C37.03 19.175 37.94 20.185 38.55 20.955C38.86 21.345 38.75 21.715 38.51 21.905C38.24 22.125 37.79 22.135 37.49 21.755L34.83 18.385L34.82 18.405Z" fill="#EE7C7C"/>
</g>
<defs>
<clipPath id="clip0_57_3105">
<rect width="43.3" height="47.85" fill="white" transform="translate(0.849976 0.0749512)"/>
</clipPath>
</defs>
</svg>
