<svg width="19" height="19" viewBox="0 0 19 19" fill="none" xmlns="http://www.w3.org/2000/svg">
<circle cx="9.5" cy="9.5" r="9.5" fill="#EE7C7C"/>
<path d="M10.124 11.374H8.38204C8.40804 11.153 8.42104 10.997 8.42104 10.828L8.40804 10.581C8.40804 9.89199 8.57704 9.35899 8.94104 8.89099C9.21404 8.56599 9.31804 8.47499 10.163 7.91599C11.008 7.35699 11.307 6.95399 11.307 6.35599C11.307 5.56299 10.618 5.06899 9.51304 5.06899C8.83704 5.06899 8.26504 5.34199 7.95304 5.80999C7.77104 6.08299 7.69304 6.30399 7.64104 6.79799L5.71704 6.56399C5.92504 5.61499 6.18504 5.12099 6.74404 4.60099C7.40704 4.00299 8.39504 3.69099 9.61704 3.69099C10.709 3.69099 11.58 3.95099 12.23 4.47099C12.841 4.95199 13.153 5.56299 13.153 6.29099C13.153 6.91499 13.01 7.40899 12.698 7.82499C12.399 8.24099 12.152 8.44899 11.099 9.16399C10.293 9.70999 10.085 10.022 10.085 10.711C10.085 10.919 10.098 11.127 10.124 11.374ZM8.30404 12.453H10.189V14.234H8.30404V12.453Z" fill="white"/>
</svg>
