<svg width="45" height="48" viewBox="0 0 45 48" fill="none" xmlns="http://www.w3.org/2000/svg">
<g clip-path="url(#clip0_57_3978)">
<mask id="mask0_57_3978" style="mask-type:luminance" maskUnits="userSpaceOnUse" x="0" y="0" width="40" height="48">
<path d="M39.105 0.0749969H0.545044V47.925H39.105V0.0749969Z" fill="white"/>
</mask>
<g mask="url(#mask0_57_3978)">
<path d="M13.365 25.485C15.335 26.205 17.705 24.685 18.655 22.095C19.605 19.505 18.775 16.815 16.805 16.095C14.835 15.375 12.465 16.895 11.515 19.485C10.565 22.075 11.395 24.765 13.365 25.485Z" fill="#EE7C7C"/>
<path d="M5.87509 29.625C7.93509 29.445 9.41509 27.105 9.18509 24.395C8.95509 21.685 7.08509 19.625 5.02509 19.805C2.96509 19.985 1.48509 22.325 1.71509 25.035C1.94509 27.745 3.81509 29.805 5.87509 29.625Z" fill="#EE7C7C"/>
<path d="M21.9351 29.535C23.7451 30.595 26.3451 29.535 27.7451 27.155C29.1451 24.775 28.8151 21.985 27.0051 20.915C25.1951 19.855 22.5951 20.915 21.1951 23.305C19.7951 25.685 20.1351 28.475 21.9451 29.535H21.9351Z" fill="#EE7C7C"/>
<path d="M31.625 32.355C30.455 30.655 27.685 30.515 25.445 32.065C23.205 33.605 22.335 36.245 23.505 37.945C24.675 39.645 27.445 39.785 29.685 38.235C31.925 36.695 32.795 34.055 31.625 32.355Z" fill="#EE7C7C"/>
<path d="M19.575 32.675C19.355 31.125 18.405 29.715 16.885 28.995C15.365 28.275 13.675 28.445 12.335 29.255C10.855 30.155 9.91503 31.325 8.63503 31.835C7.36503 32.345 3.79503 30.825 1.57503 34.855C0.00502801 37.705 1.44503 41.305 4.38503 42.685C6.61503 43.735 8.38503 43.625 9.68503 44.235C10.985 44.845 12.015 46.285 14.245 47.345C17.185 48.735 20.875 47.555 22.075 44.535C23.775 40.255 20.335 38.475 19.915 37.165C19.505 35.855 19.805 34.385 19.555 32.675H19.575Z" fill="#EE7C7C"/>
</g>
<path d="M10.285 11.195C8.44499 11.845 7.11499 11.135 6.92499 10.575C6.79499 10.205 7.02499 9.815 7.35499 9.695C7.53499 9.635 7.74499 9.655 7.95499 9.805C8.39499 10.125 9.07499 10.265 9.87499 9.975C11.115 9.535 11.095 8.595 10.965 8.225C10.805 7.775 10.365 7.385 9.65499 7.265C9.05499 7.155 8.32499 7.035 7.63499 6.975C6.47499 6.875 5.74499 6.235 5.46499 5.455C5.07499 4.355 5.58499 2.995 7.14499 2.445C8.70499 1.895 9.86499 2.325 10.055 2.855C10.175 3.195 10.005 3.615 9.65499 3.735C9.48499 3.795 9.26499 3.785 9.02499 3.655C8.72499 3.495 8.24499 3.345 7.54499 3.595C6.82499 3.855 6.53499 4.455 6.72499 4.965C6.84499 5.315 7.19499 5.625 7.78499 5.705C8.33499 5.785 9.24499 5.875 9.86499 5.975C11.215 6.195 11.995 6.885 12.285 7.725C12.715 8.935 12.125 10.545 10.295 11.195H10.285Z" fill="#EE7C7C"/>
<path d="M15.3449 5.185C15.1649 5.205 15.1749 5.265 15.1749 5.335C15.2149 5.775 15.2749 6.795 15.3449 7.585C15.4349 8.515 15.5049 8.895 16.1749 8.835C16.2549 8.835 16.3549 8.805 16.4449 8.785C16.4849 8.785 16.5049 8.765 16.5349 8.765C16.8549 8.735 17.0749 8.975 17.0949 9.245C17.1349 9.675 16.7649 9.915 16.1349 9.975C14.3649 10.145 14.2149 8.575 14.1749 8.085C14.1149 7.395 14.0249 6.195 13.9749 5.665C13.9749 5.595 13.9649 5.535 13.9549 5.485C13.9449 5.325 13.8649 5.325 13.7449 5.335L13.3849 5.365C13.0349 5.395 12.8249 5.125 12.7949 4.845C12.7649 4.575 12.9249 4.275 13.2849 4.245L13.6349 4.215C13.8249 4.195 13.8349 4.165 13.8149 3.995C13.8149 3.995 13.8149 3.755 13.7749 3.475C13.7649 3.335 13.7449 3.185 13.7249 3.055C13.7249 3.045 13.7249 3.035 13.7249 3.015C13.6949 2.655 13.9649 2.445 14.2749 2.425C14.9049 2.365 14.9649 2.935 14.9749 3.095C15.0049 3.415 15.0249 3.875 15.0249 3.875C15.0449 4.065 15.0949 4.075 15.2149 4.065L16.0149 3.985C16.3749 3.955 16.5649 4.215 16.5949 4.495C16.6249 4.765 16.4749 5.075 16.1249 5.105L15.3349 5.175L15.3449 5.185Z" fill="#EE7C7C"/>
<path d="M20.305 10.225C18.675 9.985 17.645 8.585 17.905 6.815C18.175 4.995 19.635 3.935 21.165 4.165C22.805 4.405 23.555 5.745 23.425 6.645C23.345 7.205 22.905 7.605 22.145 7.515C21.775 7.475 21.525 7.435 19.225 7.095C19.155 7.095 19.115 7.175 19.095 7.305C18.965 8.295 19.635 8.995 20.475 9.125C21.225 9.235 21.725 8.945 22.125 8.625C22.265 8.515 22.415 8.475 22.555 8.495C22.875 8.545 23.145 8.875 23.095 9.205C23.075 9.345 23.005 9.485 22.855 9.595C22.195 10.105 21.495 10.405 20.305 10.225ZM22.225 6.255C22.245 6.085 22.105 5.355 21.035 5.195C20.075 5.055 19.425 5.805 19.405 6.005C19.385 6.115 19.505 6.125 20.615 6.295C21.105 6.365 21.635 6.445 21.955 6.475C22.095 6.475 22.215 6.395 22.235 6.245L22.225 6.255Z" fill="#EE7C7C"/>
<path d="M27.115 6.495C27.115 6.495 27.135 6.495 27.155 6.495C27.725 6.345 28.335 6.375 28.925 6.665C30.415 7.385 31.015 9.015 30.225 10.645C29.465 12.225 27.785 12.815 26.295 12.095C25.705 11.805 25.305 11.335 25.075 10.795C25.055 10.775 25.045 10.745 25.035 10.735C25.015 10.725 24.995 10.735 24.975 10.785C24.395 11.975 23.925 13.015 23.715 13.455C23.565 13.795 23.225 13.915 22.895 13.755C22.605 13.615 22.415 13.285 22.595 12.915C22.595 12.895 22.615 12.885 22.625 12.865C22.845 12.495 23.235 11.685 23.695 10.735C24.485 9.105 25.445 7.065 25.945 6.035C26.135 5.635 26.515 5.565 26.795 5.705C27.045 5.825 27.205 6.115 27.095 6.465C27.095 6.495 27.095 6.505 27.115 6.515V6.495ZM29.145 10.115C29.655 9.055 29.285 8.075 28.415 7.655C27.545 7.235 26.545 7.545 26.035 8.605C25.515 9.675 25.885 10.665 26.755 11.085C27.625 11.505 28.635 11.185 29.145 10.115Z" fill="#EE7C7C"/>
<path d="M32.385 12.245C32.735 11.855 33.085 11.495 33.455 11.155C33.785 10.845 34.145 10.545 34.535 10.235C36.175 8.935 37.795 8.985 38.915 10.175C40.015 11.355 39.975 12.925 38.635 14.435C38.285 14.835 37.925 15.215 37.545 15.565C36.555 16.485 34.095 18.635 32.115 16.515C31.025 15.345 31.055 13.765 32.405 12.245H32.385ZM35.395 15.545C35.835 15.235 36.285 14.865 36.705 14.475C37.385 13.845 39.115 12.225 37.995 11.025C37.425 10.415 36.425 10.465 35.405 11.255C35.055 11.535 34.715 11.815 34.395 12.115C34.025 12.455 33.675 12.825 33.355 13.195C32.555 14.135 32.485 15.095 33.015 15.665C33.525 16.205 34.435 16.205 35.385 15.555L35.395 15.545Z" fill="#EE7C7C"/>
<path d="M41.095 18.815C41.545 19.395 42.135 19.395 42.715 18.975C43.205 18.625 43.285 17.925 42.855 17.335C42.515 16.865 42.045 16.735 41.605 16.675C41.435 16.645 41.295 16.555 41.215 16.445C41.015 16.175 41.075 15.715 41.365 15.505C41.905 15.115 43.285 15.815 43.895 16.665C44.795 17.895 44.575 19.255 43.485 20.045C42.825 20.525 42.085 20.585 41.485 20.295C41.785 21.815 40.635 22.675 40.445 22.815C39.075 23.805 37.345 23.465 36.275 21.995C35.225 20.545 35.445 19.055 35.905 18.725C36.215 18.495 36.695 18.585 36.905 18.875C36.995 19.005 37.035 19.175 36.995 19.385C36.825 20.175 36.865 20.615 37.355 21.285C37.865 21.985 38.885 22.315 39.695 21.725C40.685 21.005 40.555 20.195 40.055 19.505C40.035 19.475 40.015 19.445 39.995 19.415C39.955 19.355 39.905 19.315 39.875 19.275C39.655 18.975 39.765 18.565 40.015 18.385C40.265 18.205 40.665 18.225 40.885 18.525L41.095 18.815Z" fill="#EE7C7C"/>
</g>
<defs>
<clipPath id="clip0_57_3978">
<rect width="43.91" height="47.85" fill="white" transform="translate(0.545044 0.0749969)"/>
</clipPath>
</defs>
</svg>
