<svg width="45" height="48" viewBox="0 0 45 48" fill="none" xmlns="http://www.w3.org/2000/svg">
<g clip-path="url(#clip0_57_1405)">
<mask id="mask0_57_1405" style="mask-type:luminance" maskUnits="userSpaceOnUse" x="0" y="0" width="40" height="48">
<path d="M39.4901 0.0749512H0.930054V47.9249H39.4901V0.0749512Z" fill="white"/>
</mask>
<g mask="url(#mask0_57_1405)">
<path d="M13.75 25.485C15.72 26.205 18.09 24.685 19.04 22.095C19.99 19.505 19.16 16.815 17.19 16.095C15.22 15.375 12.85 16.895 11.9 19.485C10.95 22.075 11.78 24.765 13.75 25.485Z" fill="#EE7C7C"/>
<path d="M6.2601 29.6249C8.3201 29.4449 9.8001 27.1049 9.5701 24.3949C9.3401 21.6849 7.4701 19.6249 5.4101 19.8049C3.3501 19.9849 1.8701 22.3249 2.1001 25.0349C2.3301 27.7449 4.2001 29.8049 6.2601 29.6249Z" fill="#EE7C7C"/>
<path d="M22.3201 29.5349C24.1301 30.5949 26.7301 29.5349 28.1301 27.1549C29.5301 24.7749 29.2001 21.9849 27.3901 20.9149C25.5801 19.8549 22.9801 20.9149 21.5801 23.3049C20.1801 25.6849 20.5201 28.4749 22.3301 29.5349H22.3201Z" fill="#EE7C7C"/>
<path d="M32.0101 32.3549C30.8401 30.6549 28.0701 30.5149 25.8301 32.0649C23.5901 33.6049 22.7201 36.2449 23.8901 37.9449C25.0601 39.6449 27.8301 39.7849 30.0701 38.2349C32.3101 36.6949 33.1801 34.0549 32.0101 32.3549Z" fill="#EE7C7C"/>
<path d="M19.96 32.675C19.74 31.125 18.79 29.715 17.27 28.995C15.75 28.275 14.06 28.445 12.72 29.255C11.24 30.155 10.3 31.325 9.02004 31.835C7.75004 32.345 4.18004 30.825 1.96004 34.855C0.390038 37.705 1.83004 41.305 4.77004 42.685C7.00004 43.735 8.77004 43.625 10.07 44.235C11.37 44.845 12.4 46.285 14.63 47.345C17.57 48.735 21.26 47.555 22.46 44.535C24.16 40.255 20.72 38.475 20.3 37.165C19.89 35.855 20.19 34.385 19.94 32.675H19.96Z" fill="#EE7C7C"/>
</g>
<path d="M10.67 11.1949C8.83 11.8449 7.5 11.1349 7.31 10.5749C7.18 10.2049 7.41 9.81492 7.74 9.69492C7.92 9.63492 8.13 9.65492 8.34 9.80492C8.78 10.1249 9.46 10.2649 10.26 9.97492C11.5 9.53492 11.48 8.59492 11.35 8.22492C11.19 7.77492 10.75 7.38492 10.04 7.26492C9.44 7.15492 8.71 7.03492 8.02 6.97492C6.86 6.87492 6.13 6.23492 5.85 5.45492C5.46 4.35492 5.97 2.99492 7.53 2.44492C9.09 1.89492 10.25 2.32492 10.44 2.85492C10.56 3.19492 10.39 3.61492 10.04 3.73492C9.87 3.79492 9.65 3.78492 9.41 3.65492C9.11 3.49492 8.63 3.34492 7.93 3.59492C7.21 3.85492 6.92 4.45492 7.11 4.96492C7.23 5.31492 7.58 5.62492 8.17 5.70492C8.72 5.78492 9.63 5.87492 10.25 5.97492C11.6 6.19492 12.38 6.88492 12.67 7.72492C13.1 8.93492 12.51 10.5449 10.68 11.1949H10.67Z" fill="#EE7C7C"/>
<path d="M15.7299 5.18482C15.5499 5.20482 15.5599 5.26482 15.5599 5.33482C15.5999 5.77482 15.6599 6.79482 15.7299 7.58482C15.8199 8.51482 15.8899 8.89482 16.5599 8.83482C16.6399 8.83482 16.7399 8.80482 16.8299 8.78482C16.8699 8.78482 16.8899 8.76481 16.9199 8.76481C17.2399 8.73481 17.4599 8.97482 17.4799 9.24482C17.5199 9.67482 17.1499 9.91481 16.5199 9.97481C14.7499 10.1448 14.5999 8.57482 14.5599 8.08482C14.4999 7.39482 14.4099 6.19482 14.3599 5.66482C14.3599 5.59482 14.3499 5.53482 14.3399 5.48482C14.3299 5.32482 14.2499 5.32482 14.1299 5.33482L13.7699 5.36482C13.4199 5.39482 13.2099 5.12482 13.1799 4.84482C13.1499 4.57482 13.3099 4.27482 13.6699 4.24482L14.0199 4.21482C14.2099 4.19482 14.2199 4.16482 14.1999 3.99482C14.1999 3.99482 14.1999 3.75482 14.1599 3.47482C14.1499 3.33482 14.1299 3.18482 14.1099 3.05482C14.1099 3.04482 14.1099 3.03482 14.1099 3.01482C14.0799 2.65482 14.3499 2.44482 14.6599 2.42482C15.2899 2.36482 15.3499 2.93482 15.3599 3.09482C15.3899 3.41482 15.4099 3.87482 15.4099 3.87482C15.4299 4.06482 15.4799 4.07482 15.5999 4.06482L16.3999 3.98482C16.7599 3.95482 16.9499 4.21482 16.9799 4.49482C17.0099 4.76482 16.8599 5.07482 16.5099 5.10482L15.7199 5.17482L15.7299 5.18482Z" fill="#EE7C7C"/>
<path d="M20.69 10.2249C19.06 9.98493 18.03 8.58493 18.29 6.81493C18.56 4.99493 20.02 3.93493 21.55 4.16493C23.19 4.40493 23.94 5.74493 23.81 6.64493C23.73 7.20493 23.29 7.60493 22.53 7.51493C22.16 7.47493 21.91 7.43493 19.61 7.09493C19.54 7.09493 19.5 7.17493 19.48 7.30493C19.35 8.29493 20.02 8.99493 20.86 9.12493C21.61 9.23493 22.11 8.94493 22.51 8.62493C22.65 8.51493 22.8 8.47493 22.94 8.49493C23.26 8.54493 23.53 8.87493 23.48 9.20493C23.46 9.34493 23.39 9.48493 23.24 9.59493C22.58 10.1049 21.88 10.4049 20.69 10.2249ZM22.61 6.25493C22.63 6.08493 22.49 5.35493 21.42 5.19493C20.46 5.05493 19.81 5.80493 19.79 6.00493C19.77 6.11493 19.89 6.12493 21 6.29493C21.49 6.36493 22.02 6.44493 22.34 6.47493C22.48 6.47493 22.6 6.39493 22.62 6.24493L22.61 6.25493Z" fill="#EE7C7C"/>
<path d="M27.5 6.49501C27.5 6.49501 27.52 6.49501 27.54 6.49501C28.11 6.34501 28.72 6.37501 29.31 6.66501C30.8 7.38501 31.4 9.01501 30.61 10.645C29.85 12.225 28.17 12.815 26.68 12.095C26.09 11.805 25.69 11.335 25.46 10.795C25.44 10.775 25.43 10.745 25.42 10.735C25.4 10.725 25.38 10.735 25.36 10.785C24.78 11.975 24.31 13.015 24.1 13.455C23.95 13.795 23.61 13.915 23.28 13.755C22.99 13.615 22.8 13.285 22.98 12.915C22.98 12.895 23 12.885 23.01 12.865C23.23 12.495 23.62 11.685 24.08 10.735C24.87 9.10501 25.83 7.06501 26.33 6.03501C26.52 5.63501 26.9 5.56501 27.18 5.70501C27.43 5.82501 27.59 6.11501 27.48 6.46501C27.48 6.49501 27.48 6.50501 27.5 6.51501V6.49501ZM29.53 10.115C30.04 9.05501 29.67 8.07501 28.8 7.65501C27.93 7.23501 26.93 7.54501 26.42 8.60501C25.9 9.67501 26.27 10.665 27.14 11.085C28.01 11.505 29.02 11.185 29.53 10.115Z" fill="#EE7C7C"/>
<path d="M32.77 12.245C33.12 11.855 33.47 11.495 33.84 11.155C34.17 10.845 34.53 10.545 34.92 10.235C36.56 8.93499 38.18 8.98499 39.3 10.175C40.4 11.355 40.36 12.925 39.02 14.435C38.67 14.835 38.31 15.215 37.93 15.565C36.94 16.485 34.48 18.635 32.5 16.515C31.41 15.345 31.44 13.765 32.79 12.245H32.77ZM35.78 15.545C36.22 15.235 36.67 14.865 37.09 14.475C37.77 13.845 39.5 12.225 38.38 11.025C37.81 10.415 36.81 10.465 35.79 11.255C35.44 11.535 35.1 11.815 34.78 12.115C34.41 12.455 34.06 12.825 33.74 13.195C32.94 14.135 32.87 15.095 33.4 15.665C33.91 16.205 34.82 16.205 35.77 15.555L35.78 15.545Z" fill="#EE7C7C"/>
<path d="M36.7001 21.275C36.5001 20.985 36.4801 20.565 36.8401 20.315C37.7601 19.675 39.8801 18.255 41.1801 17.345C42.5601 16.385 42.6301 16.255 42.4001 15.925C42.3801 15.895 42.3601 15.865 42.3401 15.835C42.3201 15.815 42.3201 15.805 42.3001 15.785C42.0701 15.445 42.2101 15.105 42.4701 14.915C42.7601 14.715 43.1601 14.695 43.4301 15.005C43.5801 15.195 43.6301 15.275 43.7801 15.485C44.2501 16.165 44.1501 16.875 43.5201 17.365C43.4001 17.465 43.2201 17.585 43.0101 17.735C42.2201 18.285 40.8801 19.175 39.4701 20.155C38.8601 20.585 38.2401 21.015 37.6401 21.455C37.6401 21.455 37.6334 21.4583 37.6201 21.465C37.2701 21.705 36.9001 21.545 36.7001 21.255V21.275Z" fill="#EE7C7C"/>
</g>
<defs>
<clipPath id="clip0_57_1405">
<rect width="43.14" height="47.85" fill="white" transform="translate(0.930054 0.0749512)"/>
</clipPath>
</defs>
</svg>
