<svg width="21" height="20" viewBox="0 0 21 20" fill="none" xmlns="http://www.w3.org/2000/svg">
<path fill-rule="evenodd" clip-rule="evenodd" d="M3.11536 2.43173C6.32727 -0.810578 11.5426 -0.810578 14.7545 2.43173C17.569 5.27281 17.9183 9.66209 15.8024 12.8882L20.3152 17.4436C20.5922 17.7233 20.5922 18.1813 20.3152 18.4569L18.9943 19.7903C18.7172 20.0699 18.2636 20.0699 17.9905 19.7903L13.4738 15.2308C10.2779 17.3666 5.9298 17.014 3.11536 14.173C-0.0965579 10.9306 -0.0965579 5.66594 3.11536 2.42363V2.43173Z" fill="#ED7D7C"/>
<path fill-rule="evenodd" clip-rule="evenodd" d="M4.54871 12.872C2.05144 10.4282 1.99122 6.40363 4.4122 3.88273C6.83318 1.36184 10.82 1.30104 13.3172 3.74494C15.8145 6.18883 15.8747 10.2133 13.4537 12.7342C11.0328 15.2551 7.04597 15.3159 4.54871 12.872Z" fill="#DD5B5A"/>
<path fill-rule="evenodd" clip-rule="evenodd" d="M4.66907 12.175C2.40868 9.96209 2.35649 6.31854 4.5446 4.03677C6.73673 1.75499 10.3461 1.7023 12.6025 3.91113C14.8629 6.12401 14.9151 9.76756 12.727 12.0493C10.5348 14.3311 6.92543 14.3838 4.66505 12.175H4.66907Z" fill="#EFE3E3"/>
<path fill-rule="evenodd" clip-rule="evenodd" d="M5.00234 7.7248C4.23148 6.97097 4.21543 5.73078 4.9622 4.95263C5.70897 4.17447 6.93752 4.15826 7.70838 4.91209C8.47924 5.66593 8.4953 6.90612 7.74853 7.68427C7.00176 8.46243 5.7732 8.47864 5.00234 7.7248Z" fill="white"/>
</svg>
